<?xml version="1.0" encoding="UTF-8"?>
<svg id="Layer_2" data-name="Layer 2" xmlns="http://www.w3.org/2000/svg" viewBox="0 0 1920 1077">
  <defs>
    <style>
      .cls-1 {
        fill: #666;
      }
    </style>
  </defs>
  <g id="Layer_1-2" data-name="Layer 1">
    <path class="cls-1" d="M53.09,1033.58H1866.91c29,0,52.73-19.06,52.73-42.36V42.36C1919.64,19.06,1895.91,0,1866.91,0H53.09C24.09,0,.36,19.06,.36,42.36V991.22c0,23.3,23.73,42.36,52.73,42.36ZM1896,30V992s-1869,0-1869,0V30s1869,0,1869,0Z"/>
    <path class="cls-1" d="M0,1045.94s53.86,31.06,123.08,31.06H1774.5c61.45,0,145.5-33.18,145.5-33.18v-13.12H0v15.24Zm1094.2-2.47s-4.24,14.83-17.66,14.83h-230.95c-13.44,0-19.79-14.83-19.79-14.83h268.41Z"/>
  </g>
</svg>